# xmcd CD database file
#
# Track frame offsets:
#	182
#	21905
#	44212
#	55940
#	69727
#	86350
#	100490
#	117260
#	145545
#	157697
#	170307
#	181240
#
# Disc length: 2756 seconds
#
# Revision: 0
# Processed by: cddbd v1.4PL0 Copyright (c) Steve Scherf et al.
# Submitted via: Feurio! 1.65 - http://www.feurio.com
#
DISCID=9b0ac20c
DTITLE=Texas Thunder - Lonesome Highway
DYEAR=1996
DGENRE=Blues Rock
TTITLE0=Find A New Life
TTITLE1=Red Blooded Man
TTITLE2=I'm On The Road Again
TTITLE3=Drive My Car
TTITLE4=I Make Love
TTITLE5=Lonesome Highway
TTITLE6=Ain't No Doubt About It
TTITLE7=Lost, Blue And Lowdown
TTITLE8=Mean Mean Woman
TTITLE9=Crosscut Saw
TTITLE10=Texas Boogie
TTITLE11=Goin' Home Blues
EXTD=(c) 1996 Bladerunner Music Ltd
EXTT0=
EXTT1=
EXTT2=
EXTT3=
EXTT4=
EXTT5=
EXTT6=
EXTT7=
EXTT8=
EXTT9=
EXTT10=
EXTT11=
PLAYORDER=
